<svg xmlns="http://www.w3.org/2000/svg" viewBox="0 0 101.53 155"><defs><style>.cls-1,.cls-5{fill:#41444f;}.cls-1{opacity:0.19;}.cls-2{fill:#c7b299;}.cls-3{fill:#998675;}.cls-4{fill:#333;}.cls-6{fill:#976d59;}.cls-7{fill:#efb68e;}.cls-8{fill:#302f34;}</style></defs><g id="Layer_2" data-name="Layer 2"><g id="Layer_1-2" data-name="Layer 1"><polygon class="cls-1" points="21.53 142 48.53 155 84.53 144 57.77 130.65 21.53 142"/><polygon class="cls-2" points="48.53 149 84.53 138 84.53 91.94 48.53 101.42 48.53 149"/><polygon class="cls-3" points="21.53 136 21.53 88.42 48.53 101.42 48.53 149 21.53 136"/><polygon class="cls-4" points="62.96 144.59 62.96 97.62 75.17 94.4 75.17 140.86 62.96 144.59"/><polygon class="cls-5" points="2.53 16 61.53 2 101.53 26 42.53 40 2.53 16"/><polygon class="cls-6" points="0.53 86 41.53 108 42.53 40 2.53 16 0.53 86"/><polygon class="cls-7" points="101.53 26 101.53 92.58 41.53 108 42.53 40 101.53 26"/><polygon class="cls-8" points="61.36 0 101.53 23 101.53 36.28 42.53 51 28.53 44 28.53 69.03 16.53 63 16.53 94.74 0 86.47 0 15.14 61.36 0"/><polygon class="cls-5" points="0 15.14 41.53 36.92 101.53 23 61.36 0 0 15.14"/><polygon class="cls-8" points="65.09 62.48 65.09 69.21 59.03 70.77 59.13 63.9 65.09 62.48"/><polygon class="cls-8" points="89.03 56.33 89.03 63.05 82.97 64.61 83.07 57.74 89.03 56.33"/></g></g></svg>